Coordinates
version=1
nRows=9
nColumns=24
inDegrees=yes

Units are S.I. units (second, meters, Newtons, ...)
Angles are in degrees.

endheader
time	pelvis_tilt	pelvis_list	pelvis_rotation	pelvis_tx	pelvis_ty	pelvis_tz	hip_flexion_r	hip_adduction_r	hip_rotation_r	knee_angle_r	ankle_angle_r	subtalar_angle_r	mtp_angle_r	hip_flexion_l	hip_adduction_l	hip_rotation_l	knee_angle_l	ankle_angle_l	subtalar_angle_l	mtp_angle_l	lumbar_extension	lumbar_bending	lumbar_rotation
      0.98150000	     -2.77258429	     -1.54438914	      1.53054765	      0.50790928	      0.99330197	      0.33187663	     16.71226976	      5.56782736	      1.98322746	    -25.26521494	     12.83512200	    -13.21858557	      0.64042225	     15.44866516	     -3.04825747	     -0.72871674	    -69.56888996	     -0.50441477	     -7.38660046	      4.13575850	     -9.09003100	     10.67486166	     -4.42422181
      0.98566667	     -2.73766594	     -1.40095455	      1.35955075	      0.51247942	      0.99437367	      0.33238690	     16.16875714	      5.48503584	      2.17254407	    -24.82836512	     12.87033650	    -13.19107815	      0.65626458	     15.97129446	     -2.98085092	     -0.91398714	    -69.29924821	      0.17792164	     -7.14986361	      4.07967436	     -9.18000046	     10.43239145	     -4.05998523
      0.98983333	     -2.70868059	     -1.25179853	      1.18202619	      0.51703856	      0.99540716	      0.33287580	     15.63560675	      5.39072265	      2.36352764	    -24.39560131	     12.88877037	    -13.15681598	      0.67919139	     16.48905038	     -2.90377093	     -1.10264681	    -68.98382859	      0.83582505	     -6.95204277	      3.99455912	     -9.27019453	     10.18284223	     -3.68001031
      0.99400000	     -2.65902780	     -1.10013809	      1.01353669	      0.52160744	      0.99646596	      0.33335996	     15.07357493	      5.29010861	      2.55194483	    -23.94893000	     12.91320800	    -13.12112017	      0.70398571	     16.97084200	     -2.82818542	     -1.28839056	    -68.61361859	      1.47490098	     -6.73801229	      3.90939038	     -9.38106941	      9.93802799	     -3.35962232
      0.99816667	     -2.62106619	     -0.92384297	      0.84233140	      0.52617408	      0.99748385	      0.33384204	     14.53133937	      5.15781254	      2.73616247	    -23.51706796	     12.96911814	    -13.08197426	      0.72337341	     17.45069745	     -2.72668590	     -1.48117774	    -68.18988818	      2.08097146	     -6.51295716	      3.85335635	     -9.45918683	      9.64935396	     -3.09148364
      1.00233333	     -2.59831611	     -0.76714374	      0.67208887	      0.53074357	      0.99843106	      0.33430222	     14.00520653	      5.04046999	      2.91670633	    -23.07979424	     13.00035532	    -13.03234746	      0.74683238	     17.94001312	     -2.64735469	     -1.66927776	    -67.73438562	      2.67794020	     -6.31547665	      3.78358099	     -9.52963816	      9.39661641	     -2.76064633
      1.00650000	     -2.56273526	     -0.59439368	      0.49953126	      0.53528837	      0.99937236	      0.33475165	     13.47229730	      4.90226184	      3.10133713	    -22.65149147	     13.03135394	    -12.97860590	      0.76931909	     18.40194503	     -2.54661641	     -1.85542914	    -67.22685129	      3.24560092	     -6.14138613	      3.72045750	     -9.62140649	      9.12711680	     -2.47688943
      1.01066667	     -2.52083679	     -0.45013991	      0.33485188	      0.53987751	      1.00028431	      0.33518770	     12.92164840	      4.78819111	      3.26908223	    -22.20168559	     13.05998378	    -12.93274972	      0.79685266	     18.84630628	     -2.48379691	     -2.04037696	    -66.68406782	      3.78608120	     -5.97913977	      3.63917980	     -9.69882356	      8.88585666	     -2.14800203
      1.01483333	     -2.46709886	     -0.29095607	      0.17059711	      0.54444671	      1.00118741	      0.33560190	     12.36410670	      4.65288096	      3.43929248	    -21.75940436	     13.09008289	    -12.88123575	      0.82436827	     19.26424989	     -2.39818621	     -2.21909253	    -66.09224387	      4.29325255	     -5.84251148	      3.56050387	     -9.79975431	      8.63337250	     -1.86596298
